<svg xmlns="http://www.w3.org/2000/svg" width="117" height="21" fill="none" viewBox="0 0 117 21"><path fill="#fff" fill-rule="evenodd" d="M14.0625 2.72829C12.8852 1.0913 11.3455 0.190693 9.50069 0V1.0913C11.0618 1.0913 12.5589 2.01113 13.6629 3.64842C14.7667 5.2857 15.3868 7.50632 15.3868 9.82179C15.3868 12.1372 14.7667 14.3579 13.6629 15.9952C12.5589 17.6325 11.0618 18.5523 9.50069 18.5523V19.6436C11.2569 19.6436 12.8942 18.6481 14.136 16.8062C15.3779 14.9642 16.1226 12.4267 16.1226 9.82179C16.1226 6.98441 15.169 4.267 14.0625 2.72829Z" clip-rule="evenodd"/><path fill="#fff" d="M9.50069 1.0913V0H9.15848V19.6436H9.50069V18.5523V1.0913Z"/><path fill="#fff" d="M9.35352 9.71267C8.27081 9.71937 7.44627 9.58949 6.44532 9.3528C5.44436 9.11606 4.53448 8.76567 3.76763 8.32158C3.00079 7.87747 2.39202 7.34839 1.97604 6.76451C1.56007 6.18064 1.34505 5.55343 1.34326 4.91869C1.34148 4.28394 1.55297 3.6541 1.96564 3.06509C2.3783 2.47611 2.9841 1.9395 3.74842 1.48592C4.51273 1.03235 5.42061 0.670695 6.42019 0.421602C7.41977 0.172504 8.49149 0.00669994 9.5742 0V1.0803C8.54416 1.0913 7.88196 1.16236 7.0726 1.30958C6.26325 1.4568 5.17423 1.85522 4.57097 2.18262C3.92339 2.53405 3.44642 2.83043 3.09489 3.33215C2.74334 3.83387 2.56318 4.37042 2.56471 4.91113C2.56623 5.45184 2.74939 5.98612 3.10374 6.48352C3.45808 6.98085 3.97668 7.43156 4.62992 7.80985C5.28314 8.18817 6.05822 8.48668 6.91087 8.68832C7.76354 8.88997 8.43123 8.95443 9.35352 8.94877V9.71267Z"/><path fill="#fff" fill-rule="evenodd" d="M0 19.6436H0.949313L9.40849 9.72773L9.04351 9.0428L0 19.6436Z" clip-rule="evenodd"/><path fill="#fff" d="M35.7317 16.6238H33.787C33.1421 14.7294 32.6718 13.4752 32.3762 12.8614C32.0001 12.0892 31.5735 11.5908 31.0965 11.3663C30.7203 11.1882 30.0452 11.099 29.0711 11.099C28.5001 11.099 27.9929 11.1056 27.5495 11.1188C27.5495 13.2509 27.5898 15.0858 27.6704 16.6238H25.7962C25.897 14.5776 25.9473 12.3201 25.9473 9.8515C25.9473 7.52806 25.897 5.48846 25.7962 3.73268H27.217C27.5193 3.73268 27.9022 3.72278 28.3657 3.70298C28.8293 3.68317 29.36 3.67328 29.9578 3.67328C32.9002 3.67328 34.3714 4.66998 34.3714 6.66338C34.3714 8.32014 33.5451 9.48518 31.8926 10.1584V10.2574C32.6315 10.4753 33.2294 10.9802 33.6862 11.7723C34.0691 12.4324 34.751 14.0495 35.7317 16.6238ZM32.6483 7.33665C32.6483 5.76569 31.5667 4.98021 29.4036 4.98021C28.6311 4.98021 27.9828 5.02311 27.4588 5.10892C27.5059 6.25743 27.5294 7.8185 27.5294 9.79213C27.9324 9.80531 28.3187 9.8119 28.6882 9.8119C31.3283 9.8119 32.6483 8.9868 32.6483 7.33665ZM45.2945 16.6238L43.7124 16.6832C43.6318 16.3597 43.5915 16.0529 43.5915 15.7624H43.4908C42.6645 16.5017 41.5392 16.8713 40.1151 16.8713C39.3426 16.8713 38.6775 16.6502 38.1199 16.208C37.5624 15.7591 37.2836 15.1221 37.2836 14.297C37.2836 13.2806 37.7202 12.4654 38.5935 11.8515C39.4668 11.2311 41.0892 10.9043 43.4605 10.8713C43.4807 10.7129 43.4908 10.5314 43.4908 10.3267C43.4908 9.51484 43.2691 8.97362 42.8257 8.70298C42.389 8.43235 41.724 8.29705 40.8305 8.29705C39.7759 8.29705 38.738 8.42576 37.7168 8.68322L37.8882 7.31684C38.8958 7.03301 40.0546 6.8911 41.3646 6.8911C42.5604 6.8911 43.4841 7.13532 44.1357 7.62378C44.7873 8.10562 45.1131 8.93072 45.1131 10.099C45.1131 10.4093 45.0963 10.9736 45.0627 11.7921C45.0358 12.6039 45.0224 13.1452 45.0224 13.4159C45.0224 14.6172 45.1131 15.6865 45.2945 16.6238ZM43.5109 14.703C43.4773 13.6997 43.4605 12.7987 43.4605 12C42.1976 12 41.237 12.0925 40.5787 12.2772C39.4769 12.6073 38.926 13.2376 38.926 14.1683C38.926 15.0661 39.5709 15.5149 40.8607 15.5149C41.9692 15.5149 42.8526 15.2442 43.5109 14.703ZM49.6879 16.6238H47.864C47.9581 15.3037 48.0051 13.7954 48.0051 12.099C48.0051 10.1915 47.8876 8.59076 47.6524 7.29704L49.6677 7.02972C49.5871 8.40928 49.5468 10.099 49.5468 12.099C49.5468 13.6832 49.5938 15.1915 49.6879 16.6238ZM50.1111 4.24753C50.1111 4.58417 50.0003 4.8779 49.7786 5.12873C49.5569 5.37295 49.2445 5.49506 48.8414 5.49506C48.4989 5.49506 48.2301 5.38945 48.0353 5.17823C47.8472 4.96041 47.7532 4.69968 47.7532 4.39605C47.7532 4.06601 47.8674 3.77889 48.0958 3.53466C48.3242 3.29043 48.64 3.16832 49.043 3.16832C49.3722 3.16832 49.6308 3.27724 49.8189 3.49506C50.0137 3.70628 50.1111 3.95711 50.1111 4.24753ZM60.8932 16.6238H59.0592C59.207 14.8878 59.2809 12.9934 59.2809 10.9406C59.2809 9.92412 59.0692 9.23102 58.646 8.8614C58.2295 8.48513 57.6317 8.29705 56.8524 8.29705C55.8985 8.29705 55.0185 8.63696 54.2123 9.31688C54.2123 11.5677 54.2257 14.0033 54.2526 16.6238H52.4186C52.5329 14.3795 52.59 12.7558 52.59 11.7525C52.59 10.2079 52.4422 8.70958 52.1466 7.25744L53.9201 7.00991L54.1115 8.21784H54.1921C55.1864 7.33335 56.2511 6.8911 57.3864 6.8911C58.5016 6.8911 59.3649 7.13532 59.9762 7.62378C60.5875 8.10562 60.8932 8.96703 60.8932 10.2079C60.8932 10.3333 60.8864 10.5808 60.873 10.9505C60.8596 11.3201 60.8528 11.5677 60.8528 11.6931C60.8528 12.7954 60.8663 14.439 60.8932 16.6238ZM71.3627 7.21783C71.3627 7.64028 70.8556 8.9868 69.8412 11.2574C68.679 13.8515 67.9569 15.6799 67.6747 16.7426C67.2112 18.4653 66.7813 19.5611 66.3849 20.0297C65.8474 20.6766 64.8902 21 63.513 21L63.4324 19.6139C64.2721 19.6139 64.9708 19.3333 65.5283 18.7723C66.0859 18.2112 66.3647 17.5083 66.3647 16.6634C66.3647 15.9307 65.7467 14.1881 64.5106 11.4357C63.2746 8.68322 62.6565 7.27724 62.6565 7.21783H64.7424C64.7424 7.39605 65.1656 8.59735 66.012 10.8218C66.8585 13.0462 67.2817 14.4158 67.2817 14.9307H67.3824C67.3824 14.5016 67.7385 13.2574 68.4506 11.198C69.1694 9.13863 69.5288 7.81189 69.5288 7.21783H71.3627ZM88.5434 9.71292C88.5434 11.5875 87.9321 13.231 86.7095 14.6436C85.4936 16.0562 83.8141 16.7624 81.6711 16.7624C80.9725 16.7624 79.807 16.7162 78.1745 16.6238C78.2753 14.5776 78.3257 12.3201 78.3257 9.8515C78.3257 7.52806 78.2753 5.48846 78.1745 3.73268H79.283C79.5517 3.73268 79.9615 3.72278 80.5123 3.70298C81.0632 3.68317 81.4259 3.67328 81.6006 3.67328C83.972 3.67328 85.722 4.24753 86.8506 5.39605C87.9792 6.53796 88.5434 7.97691 88.5434 9.71292ZM86.7901 10.1584C86.7901 8.6931 86.3131 7.46866 85.3592 6.48516C84.412 5.50166 82.9442 5.00991 80.9557 5.00991C80.6735 5.00991 80.2873 5.04292 79.7969 5.10892C79.8506 6.64688 79.8775 8.22774 79.8775 9.8515C79.8775 11.6337 79.9144 13.4423 79.9883 15.2773C80.5258 15.3829 81.043 15.4357 81.5402 15.4357C83.3137 15.4357 84.6303 14.9208 85.4902 13.8911C86.3568 12.8548 86.7901 11.6106 86.7901 10.1584ZM98.439 16.6238L96.8564 16.6832C96.7758 16.3597 96.7358 16.0529 96.7358 15.7624H96.6352C95.8084 16.5017 94.6837 16.8713 93.2591 16.8713C92.4865 16.8713 91.8216 16.6502 91.2638 16.208C90.7066 15.7591 90.428 15.1221 90.428 14.297C90.428 13.2806 90.8646 12.4654 91.7378 11.8515C92.611 11.2311 94.2336 10.9043 96.6049 10.8713C96.6249 10.7129 96.6352 10.5314 96.6352 10.3267C96.6352 9.51484 96.4133 8.97362 95.9697 8.70298C95.5331 8.43235 94.8681 8.29705 93.975 8.29705C92.9199 8.29705 91.8822 8.42576 90.8614 8.68322L91.0323 7.31684C92.0403 7.03301 93.1985 6.8911 94.5089 6.8911C95.7046 6.8911 96.6281 7.13532 97.2801 7.62378C97.9314 8.10562 98.2571 8.93072 98.2571 10.099C98.2571 10.4093 98.2404 10.9736 98.2068 11.7921C98.1797 12.6039 98.1668 13.1452 98.1668 13.4159C98.1668 14.6172 98.2571 15.6865 98.439 16.6238ZM96.6552 14.703C96.6217 13.6997 96.6049 12.7987 96.6049 12C95.3415 12 94.3813 12.0925 93.7228 12.2772C92.6213 12.6073 92.0699 13.2376 92.0699 14.1683C92.0699 15.0661 92.7148 15.5149 94.0046 15.5149C95.1132 15.5149 95.9967 15.2442 96.6552 14.703ZM108.828 7.21783C108.828 7.64028 108.32 8.9868 107.306 11.2574C106.144 13.8515 105.422 15.6799 105.14 16.7426C104.676 18.4653 104.246 19.5611 103.85 20.0297C103.313 20.6766 102.355 21 100.978 21L100.897 19.6139C101.737 19.6139 102.435 19.3333 102.993 18.7723C103.551 18.2112 103.83 17.5083 103.83 16.6634C103.83 15.9307 103.212 14.1881 101.976 11.4357C100.739 8.68322 100.122 7.27724 100.122 7.21783H102.207C102.207 7.39605 102.631 8.59735 103.477 10.8218C104.323 13.0462 104.747 14.4158 104.747 14.9307H104.847C104.847 14.5016 105.203 13.2574 105.915 11.198C106.634 9.13863 106.994 7.81189 106.994 7.21783H108.828ZM117 13.9406C117 15.868 115.747 16.8317 113.242 16.8317C112.133 16.8317 111.098 16.7228 110.138 16.505L110.45 15.0495C111.324 15.3796 112.27 15.5446 113.292 15.5446C114.756 15.5446 115.488 15.1353 115.488 14.3169C115.488 13.9208 115.324 13.6073 114.994 13.3763C114.672 13.1386 114.135 12.8746 113.382 12.5842C112.428 12.2146 111.736 11.8581 111.307 11.5149C110.675 11.0066 110.359 10.3928 110.359 9.67325C110.359 8.92084 110.648 8.27724 111.226 7.74259C111.803 7.20133 112.684 6.9307 113.866 6.9307C115.021 6.9307 115.949 7.02642 116.647 7.21783L116.335 8.64355C115.609 8.35975 114.769 8.21784 113.815 8.21784C112.526 8.21784 111.881 8.58417 111.881 9.31688C111.881 9.6865 112.025 9.98679 112.314 10.2178C112.603 10.4423 113.167 10.7162 114.007 11.0396C114.914 11.3895 115.586 11.7327 116.022 12.0693C116.674 12.5908 117 13.2145 117 13.9406Z"/></svg>