<svg xmlns="http://www.w3.org/2000/svg" width="212" height="55" fill="none" viewBox="0 0 212 55"><g filter="url(#filter0_d_1000_224)"><path fill="#fff" d="M51.2031 3.12552C51.9298 3.12552 52.5187 3.11931 52.9698 3.10691C55.5761 3.10691 57.5308 3.59694 58.8339 4.57699C60.1496 5.55704 60.8075 7.01472 60.8075 8.95001C60.8075 10.4883 60.394 11.8157 59.567 12.9323C58.74 14.0488 57.5935 14.9172 56.1274 15.5375V15.6491C57.5935 16.0461 58.859 17.175 59.9241 19.0359C61.0017 20.8967 62.2359 23.7066 63.6267 27.4656H61.9352C61.0706 25.1953 60.1809 23.1546 59.2662 21.3433C58.3641 19.5197 57.5872 18.3412 56.9356 17.8077C56.2966 17.2619 55.7014 16.8959 55.1501 16.7098C54.5987 16.5113 53.4209 16.4121 51.6166 16.4121C49.8498 16.4121 48.6406 16.4245 47.9891 16.4493C47.9891 21.5853 48.0705 25.2574 48.2334 27.4656H46.1847C46.31 24.9348 46.404 22.7142 46.4666 20.8037C46.5418 18.8932 46.5794 16.8587 46.5794 14.7001C46.5794 10.5938 46.4729 6.7666 46.2599 3.21856H48.4589L51.2031 3.12552ZM52.0864 15.035C54.204 15.035 55.9081 14.514 57.1988 13.4719C58.5019 12.4174 59.1535 11.0342 59.1535 9.32218C59.1535 7.58538 58.5959 6.34481 57.4807 5.60046C56.3655 4.85612 54.511 4.48395 51.9173 4.48395C50.3761 4.48395 49.0416 4.52116 47.9139 4.5956C47.964 5.4764 47.9891 6.66736 47.9891 8.16845C47.9891 9.45865 47.9828 10.4573 47.9703 11.1644L47.9515 14.9978C48.2146 15.0226 48.6782 15.035 49.3423 15.035H52.0864Z"/><path fill="#fff" d="M77.8849 25.5675C76.2183 27.143 74.1133 27.9308 71.5696 27.9308C69.665 27.9308 68.199 27.5152 67.1715 26.684C66.1441 25.8404 65.6303 24.6123 65.6303 22.9995C65.6303 20.9774 66.5074 19.4205 68.2617 18.3288C70.0284 17.237 73.2362 16.6726 77.8849 16.6354C77.935 16.1888 77.96 15.7484 77.96 15.3142C77.96 13.6146 77.4714 12.436 76.494 11.7785C75.5166 11.1086 74.1822 10.7737 72.4906 10.7737C70.4858 10.7737 68.4684 11.028 66.4385 11.5366L66.6829 9.93627C68.6 9.42763 70.561 9.17332 72.5658 9.17332C74.7335 9.17332 76.4251 9.61992 77.6405 10.5131C78.8559 11.3939 79.4637 12.864 79.4637 14.9234C79.4637 15.5933 79.4261 16.5733 79.3509 17.8635C79.2882 19.1413 79.2569 20.4129 79.2569 21.6783C79.2569 23.5019 79.401 25.431 79.6892 27.4656L78.1856 27.54C78.0603 26.7709 77.9976 26.1134 77.9976 25.5675H77.8849ZM77.96 17.938C74.6521 17.938 72.052 18.3163 70.16 19.0731C68.2679 19.8174 67.3219 21.1821 67.3219 23.167C67.3219 25.3752 68.8005 26.4793 71.7576 26.4793C73.1108 26.4793 74.3075 26.2808 75.3475 25.8838C76.4 25.4869 77.2709 24.8852 77.96 24.0788V17.938Z"/><path fill="#fff" d="M84.7376 2.80917C85.0759 2.80917 85.3516 2.95804 85.5646 3.25578C85.7776 3.54111 85.8841 3.87606 85.8841 4.26064C85.8841 4.70725 85.7714 5.09183 85.5458 5.41438C85.3203 5.73693 84.9757 5.8982 84.5121 5.8982C84.1236 5.8982 83.8104 5.75553 83.5723 5.4702C83.3468 5.18487 83.234 4.84371 83.234 4.44673C83.234 4.02493 83.3656 3.64656 83.6287 3.3116C83.9044 2.97665 84.274 2.80917 84.7376 2.80917ZM83.1212 9.93627L85.2451 9.43384C85.1073 12.3244 85.0383 15.5933 85.0383 19.2406C85.0383 22.2676 85.1323 25.0092 85.3203 27.4656H83.3468C83.5347 24.4634 83.6287 21.7217 83.6287 19.2406C83.6287 15.7422 83.4595 12.6407 83.1212 9.93627Z"/><path fill="#fff" d="M91.2145 11.9088H91.2521C93.307 10.0851 95.3494 9.17332 97.3793 9.17332C99.5471 9.17332 101.176 9.63233 102.266 10.5504C103.369 11.4684 103.92 13.0687 103.92 15.3514L103.901 16.6912C103.901 16.9021 103.895 17.2184 103.883 17.6402C103.883 19.1537 103.889 20.3757 103.901 21.3061L103.92 27.4656H102.041C102.341 23.6818 102.492 19.7554 102.492 15.6863C102.492 13.7758 101.972 12.467 100.932 11.7599C99.9042 11.0528 98.576 10.6992 96.947 10.6992C94.8545 10.6992 92.9436 11.4994 91.2145 13.0997C91.1894 14.0054 91.1769 15.5561 91.1769 17.7519C91.1769 19.3646 91.1832 20.8905 91.1957 22.3296L91.2333 26.2746C91.2333 26.5351 91.2395 26.9321 91.2521 27.4656H89.4477C89.6733 22.8879 89.786 19.836 89.786 18.3101C89.786 15.829 89.5354 12.9881 89.0342 9.7874L90.8762 9.39662L91.2145 11.9088Z"/><path fill="#fff" d="M107.239 35.6906L107.315 34.1647C109.106 34.1647 110.478 33.5196 111.431 32.2294C112.383 30.9516 112.859 29.4629 112.859 27.7633C112.859 26.9694 112.396 25.3628 111.468 22.9437C110.554 20.5122 109.056 16.9827 106.976 12.3554L105.811 9.7874H107.897C107.897 10.1968 108.868 12.709 110.81 17.3239C112.765 21.9388 113.78 24.7735 113.855 25.828H113.93C113.93 24.9348 114.751 22.2862 116.393 17.8821C118.034 13.4781 118.855 10.7799 118.855 9.7874H120.791C120.791 10.234 120.477 11.1644 119.851 12.5787C119.224 13.9929 118.26 16.4803 116.957 20.0407C115.653 23.6012 114.72 26.56 114.156 28.9171C113.592 31.2865 112.759 33.0047 111.656 34.0716C110.554 35.1509 109.081 35.6906 107.239 35.6906Z"/><path fill="#fff" d="M134.12 3.16273C134.847 3.12552 135.536 3.10691 136.188 3.10691C140.16 3.10691 143.242 4.09316 145.435 6.06568C147.64 8.02578 148.743 10.9659 148.743 14.8862C148.743 18.7816 147.578 21.9016 145.247 24.2463C142.929 26.591 139.822 27.7633 135.925 27.7633C135.561 27.7633 134.86 27.7261 133.82 27.6517L130.568 27.4656C130.781 22.9747 130.888 18.7195 130.888 14.7001C130.888 10.9411 130.781 7.11396 130.568 3.21856H131.621C132.172 3.21856 132.661 3.21236 133.087 3.19995L134.12 3.16273ZM147.127 15.3142C147.127 11.4684 146.168 8.7019 144.251 7.01472C142.334 5.32754 139.753 4.48395 136.507 4.48395C134.678 4.48395 133.275 4.53357 132.297 4.63281C132.297 6.80382 132.303 8.44138 132.316 9.54549L132.335 14.7001L132.316 20.0407C132.316 22.4723 132.354 24.5378 132.429 26.2374C132.943 26.3118 133.45 26.3677 133.951 26.4049C134.465 26.4297 135.098 26.4421 135.85 26.4421C139.433 26.4421 142.209 25.4683 144.176 23.5206C146.143 21.5604 147.127 18.825 147.127 15.3142Z"/><path fill="#fff" d="M163.283 25.5675C161.617 27.143 159.512 27.9308 156.968 27.9308C155.063 27.9308 153.597 27.5152 152.57 26.684C151.542 25.8404 151.029 24.6123 151.029 22.9995C151.029 20.9774 151.906 19.4205 153.66 18.3288C155.427 17.237 158.634 16.6726 163.283 16.6354C163.333 16.1888 163.358 15.7484 163.358 15.3142C163.358 13.6146 162.87 12.436 161.892 11.7785C160.915 11.1086 159.58 10.7737 157.889 10.7737C155.884 10.7737 153.867 11.028 151.837 11.5366L152.081 9.93627C153.998 9.42763 155.959 9.17332 157.964 9.17332C160.132 9.17332 161.823 9.61992 163.039 10.5131C164.254 11.3939 164.862 12.864 164.862 14.9234C164.862 15.5933 164.824 16.5733 164.749 17.8635C164.687 19.1413 164.655 20.4129 164.655 21.6783C164.655 23.5019 164.799 25.431 165.088 27.4656L163.584 27.54C163.459 26.7709 163.396 26.1134 163.396 25.5675H163.283ZM163.358 17.938C160.05 17.938 157.45 18.3163 155.558 19.0731C153.666 19.8174 152.72 21.1821 152.72 23.167C152.72 25.3752 154.199 26.4793 157.156 26.4793C158.509 26.4793 159.706 26.2808 160.746 25.8838C161.798 25.4869 162.669 24.8852 163.358 24.0788V17.938Z"/><path fill="#fff" d="M168.52 35.6906L168.595 34.1647C170.387 34.1647 171.759 33.5196 172.711 32.2294C173.663 30.9516 174.139 29.4629 174.139 27.7633C174.139 26.9694 173.676 25.3628 172.748 22.9437C171.834 20.5122 170.336 16.9827 168.256 12.3554L167.091 9.7874H169.177C169.177 10.1968 170.148 12.709 172.091 17.3239C174.045 21.9388 175.06 24.7735 175.135 25.828H175.211C175.211 24.9348 176.031 22.2862 177.673 17.8821C179.314 13.4781 180.135 10.7799 180.135 9.7874H182.071C182.071 10.234 181.758 11.1644 181.131 12.5787C180.505 13.9929 179.54 16.4803 178.237 20.0407C176.934 23.6012 176 26.56 175.436 28.9171C174.872 31.2865 174.039 33.0047 172.936 34.0716C171.834 35.1509 170.361 35.6906 168.52 35.6906Z"/><path fill="#fff" d="M183.323 26.8515L183.736 25.1023C184.576 25.4869 185.49 25.766 186.48 25.9397C187.483 26.1134 188.623 26.2002 189.901 26.2002C191.104 26.2002 192.05 25.9149 192.739 25.3442C193.441 24.7735 193.792 24.0354 193.792 23.1298C193.792 22.3854 193.61 21.7279 193.247 21.1573C192.883 20.5866 192.05 20.0469 190.747 19.5383C189.444 19.0173 188.235 18.5024 187.119 17.9938C186.004 17.4852 185.177 16.8773 184.638 16.1702C184.112 15.4506 183.849 14.6318 183.849 13.7138C183.849 12.374 184.388 11.3133 185.465 10.5317C186.543 9.75018 187.902 9.3594 189.544 9.3594C191.336 9.3594 193.021 9.58891 194.6 10.0479L194.168 11.611C192.927 11.1024 191.323 10.8481 189.356 10.8481C188.128 10.8481 187.151 11.121 186.424 11.6669C185.71 12.2127 185.353 12.8826 185.353 13.6766C185.353 14.5822 185.735 15.2893 186.499 15.798C187.263 16.3066 188.548 16.9269 190.352 17.6588C192.156 18.3784 193.428 19.1041 194.168 19.836C194.919 20.568 195.295 21.5853 195.295 22.8879C195.295 24.4386 194.769 25.6419 193.716 26.4979C192.664 27.3415 191.21 27.7633 189.356 27.7633C187.263 27.7633 185.252 27.4594 183.323 26.8515Z"/><path fill="#fff" fill-rule="evenodd" d="M32.202 5.11688C30.4844 2.64673 28.2378 1.28775 25.5463 1V2.64673C27.824 2.64673 30.0083 4.03472 31.6191 6.50532C33.2296 8.97592 34.1343 12.3268 34.1343 15.8207C34.1343 19.3146 33.2296 22.6655 31.6191 25.1361C30.0083 27.6067 27.824 28.9947 25.5463 28.9947V30.6414C28.1087 30.6414 30.4974 29.1393 32.3094 26.3599C34.1212 23.5805 35.2079 19.7514 35.2079 15.8207C35.2079 11.5392 33.8165 7.43875 32.202 5.11688Z" clip-rule="evenodd"/><path fill="#fff" d="M25.5463 2.64673V1H25.047V30.6414H25.5463V28.9947V2.64673Z"/><path fill="#fff" d="M25.3315 15.6561C23.7518 15.6662 22.5488 15.4702 21.0884 15.113C19.628 14.7558 18.3004 14.2271 17.1816 13.557C16.0627 12.8868 15.1745 12.0884 14.5676 11.2074C13.9607 10.3264 13.647 9.37992 13.6443 8.42212C13.6418 7.46431 13.9503 6.5139 14.5524 5.62511C15.1545 4.73636 16.0384 3.92664 17.1536 3.24221C18.2687 2.55778 19.5933 2.01205 21.0517 1.63618C22.5101 1.2603 24.0738 1.01011 25.6535 1V2.63013C24.1507 2.64673 23.1845 2.75395 22.0036 2.9761C20.8228 3.19826 19.2338 3.79946 18.3537 4.29349C17.4088 4.82378 16.7129 5.27102 16.2 6.0281C15.6871 6.78517 15.4242 7.5948 15.4265 8.41071C15.4287 9.22662 15.6959 10.0328 16.2129 10.7834C16.7299 11.5338 17.4866 12.214 18.4397 12.7848C19.3927 13.3556 20.5236 13.8061 21.7676 14.1103C23.0117 14.4146 23.9859 14.5119 25.3315 14.5034V15.6561Z"/><path fill="#fff" fill-rule="evenodd" d="M11.6845 30.6414H13.0696L25.4117 15.6788L24.8792 14.6452L11.6845 30.6414Z" clip-rule="evenodd"/><path fill="#fff" d="M6.95184 45.853C6.95184 46.8413 6.58011 47.5712 5.83666 48.0426C5.09737 48.514 4.18893 48.7497 3.11134 48.7497C2.91503 48.7497 2.77511 48.7456 2.69158 48.7373C2.69158 49.5147 2.71455 50.5403 2.76049 51.8139H1C1.0543 50.6188 1.08145 49.2108 1.08145 47.5898C1.08145 46.1011 1.0543 44.8171 1 43.7378H2.09013C2.24467 43.7378 2.54121 43.7316 2.97977 43.7192C3.41833 43.7068 3.79841 43.7006 4.12002 43.7006C4.9136 43.7006 5.58396 43.8784 6.13111 44.234C6.67827 44.5896 6.95184 45.1293 6.95184 45.853ZM5.33545 46.1941C5.33545 45.3092 4.74235 44.8667 3.55616 44.8667C3.25961 44.8667 2.94636 44.8977 2.6164 44.9597C2.66234 45.7413 2.68531 46.6262 2.68531 47.6146C2.78973 47.6228 2.91085 47.627 3.04869 47.627C4.57319 47.627 5.33545 47.1494 5.33545 46.1941Z"/><path fill="#fff" d="M16.4848 45.1892C16.4472 46.281 16.4284 47.4285 16.4284 48.6318C16.4284 50.8773 15.4218 52 13.4087 52C12.4229 52 11.6711 51.7602 11.1532 51.2805C10.6395 50.8008 10.3826 49.9138 10.3826 48.6194C10.3826 47.3789 10.3638 46.2355 10.3262 45.1892H12.0742C12.0282 46.281 12.0053 47.4202 12.0053 48.607C12.0053 49.4713 12.1222 50.0564 12.3561 50.3624C12.5942 50.6684 12.9555 50.8215 13.44 50.8215C13.9203 50.8215 14.2816 50.6726 14.5238 50.3748C14.7703 50.0771 14.8935 49.4837 14.8935 48.5946C14.8935 47.445 14.8705 46.3099 14.8246 45.1892H16.4848Z"/><path fill="#fff" d="M25.1031 49.9779C25.1031 51.326 24.038 52 21.9079 52C21.202 52 20.5358 51.9214 19.9093 51.7643L20.21 50.5113C20.824 50.6974 21.39 50.7904 21.9079 50.7904C22.4759 50.7904 22.8769 50.747 23.1108 50.6602C23.3447 50.5692 23.4616 50.4141 23.4616 50.195C23.4616 49.9634 23.3509 49.769 23.1296 49.6119C22.9249 49.463 22.4989 49.2625 21.8515 49.0102C20.6695 48.5512 20.0785 47.8751 20.0785 46.9819C20.0785 46.3699 20.3249 45.9005 20.8178 45.5738C21.3106 45.243 22.0144 45.0776 22.9291 45.0776C23.5932 45.0776 24.1988 45.1334 24.746 45.2451L24.5204 46.4919C24.0192 46.3264 23.4888 46.2437 22.9291 46.2437C22.1021 46.2437 21.6886 46.434 21.6886 46.8144C21.6886 47.0212 21.7826 47.1886 21.9705 47.3168C22.1418 47.4326 22.526 47.598 23.1233 47.8131C24.4432 48.2928 25.1031 49.0144 25.1031 49.9779Z"/><path fill="#fff" d="M34.6736 51.8139H32.9319C32.9654 50.7098 32.9821 49.7649 32.9821 48.9792H30.3946C30.3946 49.7111 30.4134 50.656 30.451 51.8139H28.703C28.7531 50.7346 28.7782 49.5809 28.7782 48.3527C28.7782 47.1204 28.7531 46.0659 28.703 45.1892H30.451C30.405 46.1362 30.3821 46.9964 30.3821 47.7696H32.9946C32.9946 47.0625 32.9737 46.2024 32.9319 45.1892H34.6736C34.6235 46.0204 34.5985 47.0749 34.5985 48.3527C34.5985 49.6636 34.6235 50.8173 34.6736 51.8139Z"/><path fill="#fff" d="M40.3724 51.8139H38.6307C38.6766 50.7801 38.6996 49.6264 38.6996 48.3527C38.6996 47.0997 38.6766 46.0452 38.6307 45.1892H40.3724C40.3264 46.0163 40.3035 47.0708 40.3035 48.3527C40.3035 49.6512 40.3264 50.8049 40.3724 51.8139Z"/><path fill="#fff" d="M50.3878 51.8139H48.8152C48.8152 51.6444 48.3453 50.9372 47.4056 49.6925C46.4199 48.3858 45.8581 47.4574 45.7203 46.9074H45.6263C45.7265 47.6228 45.7767 48.2845 45.7767 48.8924C45.7767 49.6202 45.7996 50.594 45.8456 51.8139H44.3357C44.39 50.7801 44.4171 49.6264 44.4171 48.3527C44.4171 47.1039 44.39 46.0494 44.3357 45.1892H46.1839C46.1839 45.4001 46.5995 46.0969 47.4306 47.2796C48.3286 48.545 48.8465 49.4175 48.9844 49.8972H49.0846C48.9844 49.1612 48.9343 48.4892 48.9343 47.8813C48.9343 47.0832 48.9071 46.1858 48.8528 45.1892H50.3878C50.3418 46.008 50.3188 47.0625 50.3188 48.3527C50.3188 49.6512 50.3418 50.8049 50.3878 51.8139Z"/><path fill="#fff" d="M60.0836 51.6278C59.1105 51.8429 58.3419 51.9504 57.7781 51.9504C56.5125 51.9504 55.5519 51.632 54.8961 50.9951C54.2446 50.3583 53.9188 49.585 53.9188 48.6753C53.9188 47.6993 54.2801 46.8599 55.0026 46.1569C55.7252 45.4539 56.7151 45.1024 57.9723 45.1024C58.5946 45.1024 59.1376 45.15 59.6012 45.2451L59.407 46.5725C58.8557 46.4319 58.3294 46.3616 57.8282 46.3616C57.0973 46.3616 56.5543 46.5642 56.1993 46.9695C55.8442 47.3747 55.6667 47.8896 55.6667 48.514C55.6667 49.126 55.8589 49.6615 56.2431 50.1205C56.6316 50.5754 57.1683 50.8028 57.8533 50.8028C58.0621 50.8028 58.2897 50.7842 58.5362 50.747C58.4777 50.3583 58.4484 50.0006 58.4484 49.6739C58.4484 49.3224 58.4067 48.9027 58.3231 48.4147H60.0836C60.0544 48.9689 60.0398 49.5147 60.0398 50.0523C60.0398 50.4948 60.0544 51.0199 60.0836 51.6278Z"/><path fill="#fff" d="M74.3505 45.1892L74.3067 46.4174C73.5716 46.3595 72.8991 46.3306 72.2893 46.3306C72.2809 46.9674 72.2768 47.6414 72.2768 48.3527C72.2768 49.614 72.2977 50.7677 72.3394 51.8139H70.6103C70.6604 50.7636 70.6854 49.6098 70.6854 48.3527C70.6854 47.658 70.6792 46.9839 70.6666 46.3306C70.1571 46.3306 69.4637 46.3616 68.5866 46.4236L68.6367 45.1892H74.3505Z"/><path fill="#fff" d="M83.7018 51.8139H81.9601C81.9935 50.7098 82.0102 49.7649 82.0102 48.9792H79.4227C79.4227 49.7111 79.4415 50.656 79.4791 51.8139H77.7312C77.7813 50.7346 77.8063 49.5809 77.8063 48.3527C77.8063 47.1204 77.7813 46.0659 77.7312 45.1892H79.4791C79.4332 46.1362 79.4102 46.9964 79.4102 47.7696H82.0227C82.0227 47.0625 82.0019 46.2024 81.9601 45.1892H83.7018C83.6517 46.0204 83.6266 47.0749 83.6266 48.3527C83.6266 49.6636 83.6517 50.8173 83.7018 51.8139Z"/><path fill="#fff" d="M92.4892 50.5671L92.4391 51.8139H87.6526C87.7027 50.7966 87.7277 49.6429 87.7277 48.3527C87.7277 47.1039 87.7027 46.0494 87.6526 45.1892H92.2324L92.1822 46.436C91.042 46.374 90.0646 46.343 89.2502 46.343C89.3003 46.802 89.3253 47.3044 89.3253 47.8503C90.0187 47.8503 90.8185 47.8296 91.7249 47.7883V48.9668C90.8603 48.9296 90.0604 48.911 89.3253 48.911C89.3253 49.5354 89.3379 50.1185 89.3629 50.6602C90.2902 50.6602 91.3323 50.6292 92.4892 50.5671Z"/><path fill="#fff" d="M107.464 50.3438L107.358 51.7705C106.764 51.9111 106.18 51.9814 105.603 51.9814C104.171 51.9814 103.078 51.5906 102.327 50.809C101.579 50.0234 101.205 49.0702 101.205 47.9495C101.205 46.7875 101.602 45.7765 102.396 44.9163C103.193 44.0562 104.286 43.6261 105.672 43.6261C106.182 43.6261 106.664 43.684 107.119 43.7998L106.9 45.2327C106.407 45.0755 105.935 44.997 105.484 44.997C104.636 44.997 104.006 45.2637 103.592 45.7971C103.179 46.3264 102.972 46.9715 102.972 47.7324C102.972 48.5099 103.216 49.1839 103.705 49.7546C104.198 50.3252 104.887 50.6106 105.772 50.6106C106.29 50.6106 106.854 50.5216 107.464 50.3438Z"/><path fill="#fff" d="M117.768 48.3713C117.768 49.3803 117.425 50.2363 116.74 50.9393C116.055 51.6382 115.18 51.9876 114.115 51.9876C113.104 51.9876 112.273 51.6671 111.622 51.0261C110.974 50.3852 110.65 49.5912 110.65 48.6442C110.65 47.6352 110.993 46.7813 111.678 46.0825C112.363 45.3795 113.238 45.028 114.303 45.028C115.314 45.028 116.143 45.3485 116.79 45.9894C117.442 46.6304 117.768 47.4243 117.768 48.3713ZM116.051 48.5388C116.051 47.8937 115.871 47.3582 115.512 46.9323C115.153 46.5022 114.702 46.2872 114.159 46.2872C113.641 46.2872 113.213 46.4981 112.875 46.9198C112.536 47.3416 112.367 47.8606 112.367 48.4768C112.367 49.1219 112.547 49.6594 112.906 50.0895C113.265 50.5196 113.716 50.7346 114.259 50.7346C114.773 50.7346 115.199 50.5237 115.537 50.1019C115.88 49.676 116.051 49.1549 116.051 48.5388Z"/><path fill="#fff" d="M129.637 51.8139H127.833C127.833 51.3053 127.8 50.3769 127.733 49.0288C127.67 47.6807 127.637 46.8268 127.633 46.467H127.545C127.503 46.711 127.405 47.1163 127.25 47.6828C127.1 48.2452 126.831 49.0226 126.442 50.0151C126.054 51.0075 125.86 51.6072 125.86 51.8139H124.456C124.456 51.603 124.268 50.9993 123.892 50.0027C123.516 49.0019 123.266 48.2907 123.141 47.8689C123.019 47.4471 122.915 46.9798 122.827 46.467H122.733C122.729 46.8764 122.692 47.7758 122.621 49.1653C122.554 50.5547 122.52 51.4376 122.52 51.8139H120.885C120.885 51.6857 121.021 50.7119 121.292 48.8924C121.568 47.0687 121.706 45.8343 121.706 45.1892H124.08C124.08 45.5738 124.281 46.3781 124.682 47.6022C125.083 48.8221 125.283 49.6222 125.283 50.0027H125.377C125.377 49.6181 125.607 48.8159 126.066 47.596C126.526 46.3719 126.756 45.5697 126.756 45.1892H129.124C129.124 45.884 129.209 47.1307 129.381 48.9296C129.552 50.7284 129.637 51.6899 129.637 51.8139Z"/><path fill="#fff" d="M137.911 45.1892L137.867 46.436C136.66 46.374 135.647 46.343 134.829 46.343C134.883 46.9302 134.91 47.5257 134.91 48.1294C135.566 48.1294 136.355 48.1108 137.278 48.0736V49.2397C136.326 49.2066 135.537 49.1901 134.91 49.1901C134.91 50.0171 134.923 50.8918 134.948 51.8139H133.237C133.288 50.7966 133.313 49.6429 133.313 48.3527C133.313 47.1039 133.288 46.0494 133.237 45.1892H137.911Z"/><path fill="#fff" d="M148.033 48.3713C148.033 49.3803 147.691 50.2363 147.006 50.9393C146.321 51.6382 145.446 51.9876 144.381 51.9876C143.37 51.9876 142.539 51.6671 141.887 51.0261C141.24 50.3852 140.916 49.5912 140.916 48.6442C140.916 47.6352 141.258 46.7813 141.943 46.0825C142.628 45.3795 143.503 45.028 144.568 45.028C145.579 45.028 146.408 45.3485 147.056 45.9894C147.707 46.6304 148.033 47.4243 148.033 48.3713ZM146.316 48.5388C146.316 47.8937 146.137 47.3582 145.778 46.9323C145.418 46.5022 144.967 46.2872 144.424 46.2872C143.906 46.2872 143.478 46.4981 143.14 46.9198C142.802 47.3416 142.633 47.8606 142.633 48.4768C142.633 49.1219 142.812 49.6594 143.171 50.0895C143.531 50.5196 143.982 50.7346 144.525 50.7346C145.038 50.7346 145.464 50.5237 145.803 50.1019C146.145 49.676 146.316 49.1549 146.316 48.5388Z"/><path fill="#fff" d="M157.522 51.8139H155.687C155.281 50.6684 154.968 49.9531 154.747 49.6677C154.525 49.3824 154.204 49.2397 153.782 49.2397C153.607 49.2397 153.427 49.2418 153.243 49.2459C153.243 50.0358 153.26 50.8918 153.293 51.8139H151.57C151.62 50.7966 151.646 49.6429 151.646 48.3527C151.646 47.1039 151.62 46.0494 151.57 45.1892H152.592C152.738 45.1892 152.988 45.1851 153.343 45.1768C153.703 45.1644 154.026 45.1582 154.314 45.1582C156.031 45.1582 156.889 45.7 156.889 46.7834C156.889 47.6228 156.399 48.2059 155.417 48.5326V48.6256C155.776 48.7125 156.104 48.9875 156.401 49.4506C156.697 49.9138 157.071 50.7015 157.522 51.8139ZM155.317 47.168C155.317 46.5394 154.889 46.2251 154.033 46.2251C153.715 46.2251 153.429 46.2479 153.174 46.2934C153.22 46.802 153.243 47.4471 153.243 48.2287C153.439 48.2369 153.596 48.2411 153.713 48.2411C154.782 48.2411 155.317 47.8834 155.317 47.168Z"/><path fill="#fff" d="M166.034 45.1892L165.99 46.4174C165.255 46.3595 164.583 46.3306 163.973 46.3306C163.964 46.9674 163.96 47.6414 163.96 48.3527C163.96 49.614 163.981 50.7677 164.023 51.8139H162.294C162.344 50.7636 162.369 49.6098 162.369 48.3527C162.369 47.658 162.363 46.9839 162.35 46.3306C161.841 46.3306 161.147 46.3616 160.27 46.4236L160.32 45.1892H166.034Z"/><path fill="#fff" d="M180.188 50.4121L180.144 51.8139H174.549L174.643 50.5423C175.099 49.9468 175.773 48.9585 176.667 47.5774C177.636 46.0804 178.121 45.2389 178.121 45.0528V44.9535C177.122 44.9535 175.967 45.0011 174.656 45.0962L174.694 43.7378H180.056L179.969 45.0218C179.509 45.6503 178.866 46.6221 178.039 47.9371C177.104 49.4258 176.636 50.2673 176.636 50.4617V50.5547C177.513 50.5547 178.697 50.5072 180.188 50.4121Z"/><path fill="#fff" d="M190.623 48.3713C190.623 49.3803 190.281 50.2363 189.596 50.9393C188.911 51.6382 188.036 51.9876 186.971 51.9876C185.96 51.9876 185.129 51.6671 184.477 51.0261C183.83 50.3852 183.506 49.5912 183.506 48.6442C183.506 47.6352 183.849 46.7813 184.534 46.0825C185.219 45.3795 186.094 45.028 187.159 45.028C188.169 45.028 188.998 45.3485 189.646 45.9894C190.297 46.6304 190.623 47.4243 190.623 48.3713ZM188.907 48.5388C188.907 47.8937 188.727 47.3582 188.368 46.9323C188.009 46.5022 187.558 46.2872 187.015 46.2872C186.497 46.2872 186.069 46.4981 185.73 46.9198C185.392 47.3416 185.223 47.8606 185.223 48.4768C185.223 49.1219 185.402 49.6594 185.762 50.0895C186.121 50.5196 186.572 50.7346 187.115 50.7346C187.629 50.7346 188.055 50.5237 188.393 50.1019C188.735 49.676 188.907 49.1549 188.907 48.5388Z"/><path fill="#fff" d="M200.206 51.8139H198.634C198.634 51.6444 198.164 50.9372 197.224 49.6925C196.238 48.3858 195.677 47.4574 195.539 46.9074H195.445C195.545 47.6228 195.595 48.2845 195.595 48.8924C195.595 49.6202 195.618 50.594 195.664 51.8139H194.154C194.209 50.7801 194.236 49.6264 194.236 48.3527C194.236 47.1039 194.209 46.0494 194.154 45.1892H196.002C196.002 45.4001 196.418 46.0969 197.249 47.2796C198.147 48.545 198.665 49.4175 198.803 49.8972H198.903C198.803 49.1612 198.753 48.4892 198.753 47.8813C198.753 47.0832 198.726 46.1858 198.671 45.1892H200.206C200.16 46.008 200.137 47.0625 200.137 48.3527C200.137 49.6512 200.16 50.8049 200.206 51.8139Z"/><path fill="#fff" d="M209 50.5671L208.95 51.8139H204.163C204.213 50.7966 204.239 49.6429 204.239 48.3527C204.239 47.1039 204.213 46.0494 204.163 45.1892H208.743L208.693 46.436C207.553 46.374 206.575 46.343 205.761 46.343C205.811 46.802 205.836 47.3044 205.836 47.8503C206.529 47.8503 207.329 47.8296 208.236 47.7883V48.9668C207.371 48.9296 206.571 48.911 205.836 48.911C205.836 49.5354 205.849 50.1185 205.874 50.6602C206.801 50.6602 207.843 50.6292 209 50.5671Z"/></g><defs><filter id="filter0_d_1000_224" width="212" height="55" x="0" y="0" color-interpolation-filters="sRGB" filterUnits="userSpaceOnUse"><feFlood flood-opacity="0" result="BackgroundImageFix"/><feColorMatrix in="SourceAlpha" result="hardAlpha" type="matrix" values="0 0 0 0 0 0 0 0 0 0 0 0 0 0 0 0 0 0 127 0"/><feOffset dx="1" dy="1"/><feGaussianBlur stdDeviation="1"/><feComposite in2="hardAlpha" operator="out"/><feColorMatrix type="matrix" values="0 0 0 0 0 0 0 0 0 0 0 0 0 0 0 0 0 0 0.3 0"/><feBlend in2="BackgroundImageFix" mode="normal" result="effect1_dropShadow_1000_224"/><feBlend in="SourceGraphic" in2="effect1_dropShadow_1000_224" mode="normal" result="shape"/></filter></defs></svg>