<svg width="211" height="55" viewBox="0 0 211 55" fill="none" xmlns="http://www.w3.org/2000/svg">
<g filter="url(#filter0_d_123_151)">
<path d="M50.9617 3.12552C51.685 3.12552 52.271 3.11931 52.72 3.10691C55.3137 3.10691 57.259 3.59694 58.5559 4.57699C59.8652 5.55704 60.5199 7.01472 60.5199 8.95001C60.5199 10.4883 60.1084 11.8157 59.2854 12.9323C58.4624 14.0488 57.3214 14.9172 55.8624 15.5375V15.6491C57.3214 16.0461 58.5808 17.175 59.6408 19.0359C60.7132 20.8967 61.9415 23.7066 63.3257 27.4656H61.6422C60.7818 25.1953 59.8964 23.1546 58.9861 21.3433C58.0883 19.5197 57.3151 18.3412 56.6667 17.8077C56.0307 17.2619 55.4384 16.8959 54.8897 16.7098C54.3411 16.5113 53.1689 16.4121 51.3732 16.4121C49.6149 16.4121 48.4116 16.4245 47.7632 16.4493C47.7632 21.5853 47.8442 25.2574 48.0063 27.4656H45.9675C46.0922 24.9348 46.1857 22.7142 46.2481 20.8037C46.3229 18.8932 46.3603 16.8587 46.3603 14.7001C46.3603 10.5938 46.2543 6.7666 46.0423 3.21856H48.2308L50.9617 3.12552ZM51.8408 15.035C53.9483 15.035 55.6442 14.514 56.9286 13.4719C58.2254 12.4174 58.8739 11.0342 58.8739 9.32218C58.8739 7.58538 58.319 6.34481 57.2091 5.60046C56.0993 4.85612 54.2538 4.48395 51.6725 4.48395C50.1387 4.48395 48.8106 4.52116 47.6883 4.5956C47.7382 5.4764 47.7632 6.66736 47.7632 8.16845C47.7632 9.45865 47.7569 10.4573 47.7445 11.1644L47.7257 14.9978C47.9876 15.0226 48.449 15.035 49.1099 15.035H51.8408Z" fill="white"/>
<path d="M77.5152 25.5675C75.8567 27.143 73.7618 27.9308 71.2304 27.9308C69.3349 27.9308 67.8759 27.5152 66.8534 26.684C65.8309 25.8404 65.3196 24.6123 65.3196 22.9995C65.3196 20.9774 66.1925 19.4205 67.9383 18.3288C69.6966 17.237 72.8889 16.6726 77.5152 16.6354C77.5651 16.1888 77.59 15.7484 77.59 15.3142C77.59 13.6146 77.1037 12.436 76.1311 11.7785C75.1584 11.1086 73.8303 10.7737 72.1469 10.7737C70.1517 10.7737 68.1441 11.028 66.1239 11.5366L66.3671 9.93627C68.275 9.42763 70.2265 9.17332 72.2217 9.17332C74.379 9.17332 76.0625 9.61992 77.2721 10.5131C78.4816 11.3939 79.0864 12.864 79.0864 14.9234C79.0864 15.5933 79.049 16.5733 78.9742 17.8635C78.9118 19.1413 78.8807 20.4129 78.8807 21.6783C78.8807 23.5019 79.0241 25.431 79.3109 27.4656L77.8145 27.54C77.6898 26.7709 77.6274 26.1134 77.6274 25.5675H77.5152ZM77.59 17.938C74.298 17.938 71.7105 18.3163 69.8275 19.0731C67.9445 19.8174 67.0031 21.1821 67.0031 23.167C67.0031 25.3752 68.4745 26.4793 71.4174 26.4793C72.7642 26.4793 73.955 26.2808 74.9901 25.8838C76.0375 25.4869 76.9042 24.8852 77.59 24.0788V17.938Z" fill="white"/>
<path d="M84.335 2.80917C84.6717 2.80917 84.9461 2.95804 85.1581 3.25578C85.37 3.54111 85.476 3.87606 85.476 4.26064C85.476 4.70725 85.3638 5.09183 85.1394 5.41438C84.9149 5.73693 84.572 5.8982 84.1106 5.8982C83.724 5.8982 83.4123 5.75553 83.1753 5.4702C82.9509 5.18487 82.8386 4.84371 82.8386 4.44673C82.8386 4.02493 82.9696 3.64656 83.2315 3.3116C83.5058 2.97665 83.8736 2.80917 84.335 2.80917ZM82.7264 9.93627L84.8401 9.43384C84.7029 12.3244 84.6343 15.5933 84.6343 19.2406C84.6343 22.2676 84.7278 25.0092 84.9149 27.4656H82.9509C83.1379 24.4634 83.2315 21.7217 83.2315 19.2406C83.2315 15.7422 83.0631 12.6407 82.7264 9.93627Z" fill="white"/>
<path d="M90.7808 11.9088H90.8182C92.8632 10.0851 94.8958 9.17332 96.916 9.17332C99.0733 9.17332 100.694 9.63233 101.779 10.5504C102.877 11.4684 103.425 13.0687 103.425 15.3514L103.407 16.6912C103.407 16.9021 103.4 17.2184 103.388 17.6402C103.388 19.1537 103.394 20.3757 103.407 21.3061L103.425 27.4656H101.555C101.854 23.6818 102.004 19.7554 102.004 15.6863C102.004 13.7758 101.486 12.467 100.451 11.7599C99.4287 11.0528 98.1069 10.6992 96.4858 10.6992C94.4033 10.6992 92.5016 11.4994 90.7808 13.0997C90.7558 14.0054 90.7433 15.5561 90.7433 17.7519C90.7433 19.3646 90.7496 20.8905 90.7621 22.3296L90.7995 26.2746C90.7995 26.5351 90.8057 26.9321 90.8182 27.4656H89.0225C89.247 22.8879 89.3592 19.8361 89.3592 18.3101C89.3592 15.829 89.1098 12.9881 88.611 9.7874L90.4441 9.39662L90.7808 11.9088Z" fill="white"/>
<path d="M106.729 35.6906L106.803 34.1647C108.587 34.1647 109.952 33.5196 110.9 32.2294C111.848 30.9516 112.321 29.4629 112.321 27.7633C112.321 26.9694 111.86 25.3628 110.937 22.9437C110.027 20.5122 108.537 16.9827 106.467 12.3554L105.307 9.7874H107.383C107.383 10.1968 108.35 12.709 110.283 17.3239C112.228 21.9388 113.238 24.7735 113.313 25.828H113.388C113.388 24.9348 114.204 22.2862 115.838 17.8821C117.471 13.4781 118.288 10.7799 118.288 9.7874H120.215C120.215 10.234 119.903 11.1644 119.28 12.5787C118.656 13.9929 117.696 16.4803 116.399 20.0407C115.102 23.6012 114.173 26.56 113.612 28.9171C113.051 31.2865 112.222 33.0047 111.124 34.0716C110.027 35.1509 108.562 35.6906 106.729 35.6906Z" fill="white"/>
<path d="M133.48 3.16273C134.204 3.12552 134.889 3.10691 135.538 3.10691C139.491 3.10691 142.559 4.09316 144.741 6.06568C146.935 8.02578 148.033 10.9659 148.033 14.8862C148.033 18.7816 146.873 21.9016 144.554 24.2463C142.247 26.591 139.154 27.7633 135.276 27.7633C134.914 27.7633 134.216 27.7261 133.181 27.6517L129.945 27.4656C130.157 22.9747 130.263 18.7195 130.263 14.7001C130.263 10.9411 130.157 7.11396 129.945 3.21856H130.993C131.541 3.21856 132.028 3.21236 132.452 3.19995L133.48 3.16273ZM146.424 15.3142C146.424 11.4684 145.47 8.7019 143.562 7.01472C141.654 5.32754 139.086 4.48395 135.856 4.48395C134.035 4.48395 132.639 4.53357 131.666 4.63281C131.666 6.80382 131.672 8.44138 131.685 9.54549L131.703 14.7001L131.685 20.0407C131.685 22.4723 131.722 24.5378 131.797 26.2374C132.308 26.3118 132.813 26.3677 133.312 26.4049C133.823 26.4297 134.453 26.4421 135.201 26.4421C138.768 26.4421 141.53 25.4683 143.488 23.5206C145.445 21.5604 146.424 18.825 146.424 15.3142Z" fill="white"/>
<path d="M162.503 25.5675C160.844 27.143 158.749 27.9308 156.218 27.9308C154.323 27.9308 152.864 27.5152 151.841 26.684C150.819 25.8404 150.307 24.6123 150.307 22.9995C150.307 20.9774 151.18 19.4205 152.926 18.3288C154.684 17.237 157.877 16.6726 162.503 16.6354C162.553 16.1888 162.578 15.7484 162.578 15.3142C162.578 13.6146 162.091 12.436 161.119 11.7785C160.146 11.1086 158.818 10.7737 157.135 10.7737C155.139 10.7737 153.132 11.028 151.112 11.5366L151.355 9.93627C153.263 9.42763 155.214 9.17332 157.209 9.17332C159.367 9.17332 161.05 9.61992 162.26 10.5131C163.469 11.3939 164.074 12.864 164.074 14.9234C164.074 15.5933 164.037 16.5733 163.962 17.8635C163.9 19.1413 163.868 20.4129 163.868 21.6783C163.868 23.5019 164.012 25.431 164.299 27.4656L162.802 27.54C162.678 26.7709 162.615 26.1134 162.615 25.5675H162.503ZM162.578 17.938C159.286 17.938 156.698 18.3163 154.815 19.0731C152.932 19.8174 151.991 21.1821 151.991 23.167C151.991 25.3752 153.462 26.4793 156.405 26.4793C157.752 26.4793 158.943 26.2808 159.978 25.8838C161.025 25.4869 161.892 24.8852 162.578 24.0788V17.938Z" fill="white"/>
<path d="M167.714 35.6906L167.789 34.1647C169.572 34.1647 170.938 33.5196 171.885 32.2294C172.833 30.9516 173.307 29.4629 173.307 27.7633C173.307 26.9694 172.846 25.3628 171.923 22.9437C171.012 20.5122 169.522 16.9827 167.452 12.3554L166.293 9.7874H168.369C168.369 10.1968 169.335 12.709 171.268 17.3239C173.213 21.9388 174.223 24.7735 174.298 25.828H174.373C174.373 24.9348 175.19 22.2862 176.823 17.8821C178.457 13.4781 179.274 10.7799 179.274 9.7874H181.2C181.2 10.234 180.889 11.1644 180.265 12.5787C179.642 13.9929 178.681 16.4803 177.385 20.0407C176.088 23.6012 175.159 26.56 174.598 28.9171C174.036 31.2865 173.207 33.0047 172.11 34.0716C171.012 35.1509 169.547 35.6906 167.714 35.6906Z" fill="white"/>
<path d="M182.446 26.8515L182.858 25.1023C183.693 25.4869 184.603 25.766 185.589 25.9397C186.586 26.1134 187.721 26.2002 188.993 26.2002C190.19 26.2002 191.131 25.9149 191.817 25.3442C192.516 24.7735 192.865 24.0354 192.865 23.1298C192.865 22.3854 192.684 21.7279 192.322 21.1573C191.961 20.5866 191.131 20.0469 189.835 19.5383C188.538 19.0173 187.334 18.5024 186.225 17.9938C185.115 17.4852 184.292 16.8773 183.755 16.1702C183.232 15.4506 182.97 14.6318 182.97 13.7138C182.97 12.374 183.506 11.3133 184.579 10.5317C185.651 9.75018 187.004 9.3594 188.637 9.3594C190.421 9.3594 192.098 9.58891 193.669 10.0479L193.239 11.611C192.004 11.1024 190.408 10.8481 188.45 10.8481C187.228 10.8481 186.256 11.121 185.532 11.6669C184.822 12.2127 184.466 12.8826 184.466 13.6766C184.466 14.5822 184.847 15.2893 185.607 15.798C186.368 16.3066 187.646 16.9269 189.442 17.6588C191.237 18.3784 192.503 19.1041 193.239 19.8361C193.987 20.568 194.361 21.5853 194.361 22.8879C194.361 24.4386 193.837 25.6419 192.79 26.4979C191.742 27.3415 190.296 27.7633 188.45 27.7633C186.368 27.7633 184.367 27.4594 182.446 26.8515Z" fill="white"/>
<path fill-rule="evenodd" clip-rule="evenodd" d="M32.052 5.11688C30.3426 2.64673 28.1069 1.28775 25.4283 1V2.64673C27.695 2.64673 29.8689 4.03472 31.4719 6.50532C33.0746 8.97592 33.975 12.3268 33.975 15.8207C33.975 19.3146 33.0746 22.6655 31.4719 25.1361C29.8689 27.6067 27.695 28.9947 25.4283 28.9947V30.6414C27.9784 30.6414 30.3556 29.1393 32.1588 26.3599C33.962 23.5805 35.0434 19.7514 35.0434 15.8207C35.0434 11.5392 33.6587 7.43875 32.052 5.11688Z" fill="white"/>
<path d="M25.4283 2.64673V1H24.9314V30.6414H25.4283V28.9947V2.64673Z" fill="white"/>
<path d="M25.2146 15.6561C23.6425 15.6662 22.4452 15.4702 20.9918 15.113C19.5384 14.7558 18.2173 14.2271 17.1038 13.557C15.9903 12.8868 15.1064 12.0884 14.5024 11.2074C13.8984 10.3264 13.5862 9.37992 13.5836 8.42212C13.581 7.46431 13.8881 6.5139 14.4873 5.62511C15.0865 4.73636 15.9661 3.92664 17.0759 3.24221C18.1857 2.55778 19.5039 2.01205 20.9553 1.63618C22.4067 1.2603 23.9629 1.01011 25.535 1V2.63013C24.0394 2.64673 23.0778 2.75395 21.9026 2.9761C20.7275 3.19826 19.1462 3.79946 18.2702 4.29349C17.3299 4.82378 16.6374 5.27102 16.1269 6.0281C15.6165 6.78517 15.3549 7.5948 15.3571 8.41071C15.3593 9.22662 15.6253 10.0328 16.1398 10.7834C16.6543 11.5338 17.4073 12.214 18.3558 12.7848C19.3043 13.3556 20.4297 13.8061 21.6678 14.1103C22.9059 14.4146 23.8754 14.5119 25.2146 14.5034V15.6561Z" fill="white"/>
<path fill-rule="evenodd" clip-rule="evenodd" d="M11.6331 30.6414H13.0115L25.2944 15.6788L24.7644 14.6452L11.6331 30.6414Z" fill="white"/>
<path d="M6.92323 45.853C6.92323 46.8413 6.55329 47.5712 5.8134 48.0426C5.07767 48.514 4.1736 48.7497 3.10119 48.7497C2.90582 48.7497 2.76658 48.7456 2.68344 48.7373C2.68344 49.5147 2.70631 50.5403 2.75203 51.8139H1C1.05404 50.6188 1.08105 49.2108 1.08105 47.5898C1.08105 46.1011 1.05404 44.8171 1 43.7378H2.08489C2.23868 43.7378 2.5338 43.7316 2.97025 43.7192C3.4067 43.7068 3.78496 43.7006 4.10502 43.7006C4.89478 43.7006 5.56192 43.8784 6.10645 44.234C6.65097 44.5896 6.92323 45.1293 6.92323 45.853ZM5.3146 46.1941C5.3146 45.3092 4.72436 44.8667 3.54387 44.8667C3.24875 44.8667 2.937 44.8977 2.60862 44.9597C2.65435 45.7413 2.67721 46.6262 2.67721 47.6146C2.78113 47.6228 2.90167 47.627 3.03884 47.627C4.55602 47.627 5.3146 47.1494 5.3146 46.1941Z" fill="white"/>
<path d="M16.4104 45.1892C16.373 46.281 16.3543 47.4285 16.3543 48.6318C16.3543 50.8773 15.3525 52 13.349 52C12.368 52 11.6198 51.7602 11.1044 51.2805C10.5931 50.8008 10.3375 49.9138 10.3375 48.6194C10.3375 47.3789 10.3188 46.2355 10.2814 45.1892H12.0209C11.9752 46.281 11.9524 47.4202 11.9524 48.607C11.9524 49.4713 12.0687 50.0564 12.3015 50.3624C12.5384 50.6684 12.898 50.8215 13.3802 50.8215C13.8582 50.8215 14.2177 50.6726 14.4588 50.3748C14.7041 50.0771 14.8267 49.4837 14.8267 48.5946C14.8267 47.445 14.8038 46.3099 14.7581 45.1892H16.4104Z" fill="white"/>
<path d="M24.9872 49.9779C24.9872 51.326 23.9273 52 21.8074 52C21.1049 52 20.4419 51.9214 19.8184 51.7643L20.1177 50.5113C20.7287 50.6974 21.2919 50.7904 21.8074 50.7904C22.3727 50.7904 22.7717 50.747 23.0045 50.6602C23.2373 50.5692 23.3536 50.4141 23.3536 50.195C23.3536 49.9634 23.2435 49.769 23.0232 49.6119C22.8195 49.463 22.3955 49.2625 21.7512 49.0102C20.5749 48.5512 19.9868 47.8751 19.9868 46.9819C19.9868 46.3699 20.232 45.9005 20.7225 45.5738C21.213 45.243 21.9134 45.0776 22.8237 45.0776C23.4846 45.0776 24.0873 45.1334 24.6318 45.2451L24.4074 46.4919C23.9086 46.3264 23.3807 46.2437 22.8237 46.2437C22.0006 46.2437 21.5891 46.434 21.5891 46.8144C21.5891 47.0212 21.6827 47.1886 21.8697 47.3168C22.0401 47.4326 22.4226 47.598 23.017 47.8131C24.3305 48.2928 24.9872 49.0144 24.9872 49.9779Z" fill="white"/>
<path d="M34.5118 51.8139H32.7784C32.8117 50.7098 32.8283 49.7649 32.8283 48.9792H30.2533C30.2533 49.7111 30.272 50.656 30.3094 51.8139H28.5698C28.6197 50.7346 28.6446 49.5809 28.6446 48.3527C28.6446 47.1204 28.6197 46.0659 28.5698 45.1892H30.3094C30.2637 46.1362 30.2408 46.9963 30.2408 47.7696H32.8408C32.8408 47.0625 32.82 46.2024 32.7784 45.1892H34.5118C34.4619 46.0204 34.4369 47.0749 34.4369 48.3527C34.4369 49.6636 34.4619 50.8173 34.5118 51.8139Z" fill="white"/>
<path d="M40.1831 51.8139H38.4498C38.4955 50.7801 38.5183 49.6264 38.5183 48.3527C38.5183 47.0997 38.4955 46.0452 38.4498 45.1892H40.1831C40.1374 46.0163 40.1145 47.0708 40.1145 48.3527C40.1145 49.6512 40.1374 50.8049 40.1831 51.8139Z" fill="white"/>
<path d="M50.1503 51.8139H48.5853C48.5853 51.6444 48.1177 50.9372 47.1825 49.6925C46.2015 48.3858 45.6424 47.4574 45.5053 46.9074H45.4117C45.5115 47.6228 45.5614 48.2845 45.5614 48.8924C45.5614 49.6202 45.5842 50.594 45.63 51.8139H44.1273C44.1814 50.7801 44.2084 49.6264 44.2084 48.3527C44.2084 47.1039 44.1814 46.0494 44.1273 45.1892H45.9667C45.9667 45.4001 46.3802 46.0969 47.2074 47.2796C48.1011 48.545 48.6165 49.4175 48.7537 49.8972H48.8535C48.7537 49.1612 48.7038 48.4892 48.7038 47.8813C48.7038 47.0832 48.6768 46.1858 48.6228 45.1892H50.1503C50.1046 46.008 50.0817 47.0625 50.0817 48.3527C50.0817 49.6512 50.1046 50.8049 50.1503 51.8139Z" fill="white"/>
<path d="M59.7996 51.6278C58.8311 51.8429 58.0663 51.9504 57.5051 51.9504C56.2456 51.9504 55.2896 51.632 54.637 50.9951C53.9886 50.3583 53.6644 49.585 53.6644 48.6753C53.6644 47.6993 54.0239 46.8599 54.743 46.1569C55.4621 45.4539 56.4472 45.1024 57.6984 45.1024C58.3177 45.1024 58.8581 45.15 59.3195 45.2451L59.1262 46.5725C58.5775 46.4319 58.0538 46.3616 57.555 46.3616C56.8276 46.3616 56.2872 46.5642 55.9339 46.9695C55.5806 47.3747 55.4039 47.8896 55.4039 48.514C55.4039 49.126 55.5951 49.6615 55.9775 50.1205C56.3641 50.5754 56.8982 50.8028 57.5799 50.8028C57.7878 50.8028 58.0143 50.7842 58.2595 50.747C58.2013 50.3583 58.1722 50.0006 58.1722 49.6739C58.1722 49.3224 58.1307 48.9027 58.0476 48.4147H59.7996C59.7705 48.9689 59.7559 49.5147 59.7559 50.0523C59.7559 50.4948 59.7705 51.0199 59.7996 51.6278Z" fill="white"/>
<path d="M73.9979 45.1892L73.9542 46.4174C73.2227 46.3595 72.5534 46.3306 71.9466 46.3306C71.9382 46.9674 71.9341 47.6414 71.9341 48.3527C71.9341 49.614 71.9549 50.7677 71.9964 51.8139H70.2756C70.3255 50.7636 70.3504 49.6098 70.3504 48.3527C70.3504 47.658 70.3442 46.9839 70.3317 46.3306C69.8246 46.3306 69.1346 46.3616 68.2617 46.4236L68.3116 45.1892H73.9979Z" fill="white"/>
<path d="M83.3042 51.8139H81.5709C81.6041 50.7098 81.6208 49.7649 81.6208 48.9792H79.0457C79.0457 49.7111 79.0644 50.656 79.1018 51.8139H77.3623C77.4121 50.7346 77.4371 49.5809 77.4371 48.3527C77.4371 47.1204 77.4121 46.0659 77.3623 45.1892H79.1018C79.0561 46.1362 79.0332 46.9963 79.0332 47.7696H81.6332C81.6332 47.0625 81.6124 46.2024 81.5709 45.1892H83.3042C83.2543 46.0204 83.2294 47.0749 83.2294 48.3527C83.2294 49.6636 83.2543 50.8173 83.3042 51.8139Z" fill="white"/>
<path d="M92.0494 50.5671L91.9995 51.8139H87.236C87.2859 50.7966 87.3108 49.6429 87.3108 48.3527C87.3108 47.1039 87.2859 46.0494 87.236 45.1892H91.7937L91.7439 46.436C90.6091 46.374 89.6364 46.343 88.8259 46.343C88.8758 46.802 88.9007 47.3044 88.9007 47.8503C89.5907 47.8503 90.3867 47.8296 91.2887 47.7882V48.9668C90.4283 48.9296 89.6323 48.911 88.9007 48.911C88.9007 49.5354 88.9132 50.1185 88.9381 50.6602C89.8609 50.6602 90.898 50.6292 92.0494 50.5671Z" fill="white"/>
<path d="M106.952 50.3438L106.846 51.7705C106.256 51.9111 105.674 51.9814 105.1 51.9814C103.675 51.9814 102.588 51.5906 101.84 50.809C101.095 50.0233 100.723 49.0702 100.723 47.9495C100.723 46.7875 101.118 45.7765 101.908 44.9163C102.702 44.0562 103.789 43.6261 105.169 43.6261C105.676 43.6261 106.156 43.684 106.609 43.7998L106.391 45.2327C105.901 45.0755 105.431 44.997 104.982 44.997C104.138 44.997 103.511 45.2637 103.099 45.7971C102.687 46.3264 102.482 46.9715 102.482 47.7324C102.482 48.5098 102.725 49.1839 103.211 49.7546C103.702 50.3252 104.388 50.6106 105.269 50.6106C105.784 50.6106 106.345 50.5216 106.952 50.3438Z" fill="white"/>
<path d="M117.206 48.3713C117.206 49.3803 116.865 50.2363 116.184 50.9393C115.502 51.6382 114.631 51.9876 113.571 51.9876C112.565 51.9876 111.738 51.6671 111.09 51.0261C110.445 50.3852 110.123 49.5912 110.123 48.6442C110.123 47.6352 110.464 46.7813 111.146 46.0825C111.828 45.3795 112.698 45.028 113.758 45.028C114.764 45.028 115.589 45.3485 116.234 45.9894C116.882 46.6304 117.206 47.4243 117.206 48.3713ZM115.498 48.5388C115.498 47.8937 115.319 47.3582 114.962 46.9323C114.604 46.5022 114.155 46.2872 113.615 46.2872C113.099 46.2872 112.673 46.4981 112.337 46.9198C112 47.3416 111.832 47.8606 111.832 48.4768C111.832 49.1219 112.01 49.6595 112.368 50.0895C112.725 50.5196 113.174 50.7346 113.715 50.7346C114.226 50.7346 114.65 50.5237 114.987 50.1019C115.327 49.676 115.498 49.1549 115.498 48.5388Z" fill="white"/>
<path d="M129.019 51.8139H127.223C127.223 51.3053 127.19 50.3769 127.124 49.0288C127.061 47.6807 127.028 46.8268 127.024 46.467H126.937C126.895 46.711 126.797 47.1163 126.644 47.6828C126.494 48.2452 126.226 49.0226 125.839 50.0151C125.453 51.0075 125.259 51.6072 125.259 51.8139H123.863C123.863 51.603 123.676 50.9993 123.302 50.0027C122.927 49.0019 122.678 48.2907 122.553 47.8689C122.433 47.4471 122.329 46.9798 122.242 46.467H122.148C122.144 46.8764 122.107 47.7758 122.036 49.1653C121.969 50.5547 121.936 51.4376 121.936 51.8139H120.309C120.309 51.6857 120.444 50.7119 120.714 48.8924C120.988 47.0687 121.126 45.8343 121.126 45.1892H123.489C123.489 45.5738 123.688 46.3781 124.087 47.6022C124.486 48.8221 124.686 49.6222 124.686 50.0027H124.779C124.779 49.6181 125.008 48.8159 125.465 47.596C125.922 46.3719 126.151 45.5697 126.151 45.1892H128.508C128.508 45.884 128.593 47.1307 128.763 48.9296C128.934 50.7284 129.019 51.6899 129.019 51.8139Z" fill="white"/>
<path d="M137.253 45.1892L137.209 46.436C136.008 46.374 135 46.343 134.185 46.343C134.239 46.9302 134.266 47.5257 134.266 48.1294C134.919 48.1294 135.705 48.1108 136.623 48.0736V49.2397C135.675 49.2066 134.89 49.1901 134.266 49.1901C134.266 50.0171 134.279 50.8918 134.304 51.8139H132.602C132.652 50.7966 132.676 49.6429 132.676 48.3527C132.676 47.1039 132.652 46.0494 132.602 45.1892H137.253Z" fill="white"/>
<path d="M147.326 48.3713C147.326 49.3803 146.985 50.2363 146.304 50.9393C145.622 51.6382 144.751 51.9876 143.691 51.9876C142.685 51.9876 141.858 51.6671 141.21 51.0261C140.565 50.3852 140.243 49.5912 140.243 48.6442C140.243 47.6352 140.584 46.7813 141.266 46.0825C141.947 45.3795 142.818 45.028 143.878 45.028C144.884 45.028 145.709 45.3485 146.354 45.9894C147.002 46.6304 147.326 47.4243 147.326 48.3713ZM145.618 48.5388C145.618 47.8937 145.439 47.3582 145.082 46.9323C144.724 46.5022 144.275 46.2872 143.735 46.2872C143.219 46.2872 142.793 46.4981 142.457 46.9198C142.12 47.3416 141.952 47.8606 141.952 48.4768C141.952 49.1219 142.13 49.6595 142.488 50.0895C142.845 50.5196 143.294 50.7346 143.835 50.7346C144.346 50.7346 144.77 50.5237 145.107 50.1019C145.447 49.676 145.618 49.1549 145.618 48.5388Z" fill="white"/>
<path d="M156.77 51.8139H154.943C154.54 50.6684 154.228 49.9531 154.008 49.6677C153.787 49.3824 153.467 49.2397 153.047 49.2397C152.873 49.2397 152.694 49.2418 152.511 49.2459C152.511 50.0358 152.528 50.8918 152.561 51.8139H150.846C150.896 50.7966 150.921 49.6429 150.921 48.3527C150.921 47.1039 150.896 46.0494 150.846 45.1892H151.863C152.008 45.1892 152.258 45.1851 152.611 45.1768C152.968 45.1644 153.291 45.1582 153.577 45.1582C155.286 45.1582 156.14 45.7 156.14 46.7834C156.14 47.6228 155.652 48.2059 154.675 48.5326V48.6256C155.032 48.7125 155.359 48.9875 155.654 49.4506C155.949 49.9138 156.321 50.7015 156.77 51.8139ZM154.575 47.168C154.575 46.5394 154.149 46.2251 153.297 46.2251C152.981 46.2251 152.696 46.2479 152.443 46.2934C152.488 46.802 152.511 47.4471 152.511 48.2287C152.707 48.2369 152.862 48.2411 152.979 48.2411C154.043 48.2411 154.575 47.8834 154.575 47.168Z" fill="white"/>
<path d="M165.241 45.1892L165.197 46.4174C164.465 46.3595 163.796 46.3306 163.189 46.3306C163.181 46.9674 163.177 47.6414 163.177 48.3527C163.177 49.614 163.198 50.7677 163.239 51.8139H161.518C161.568 50.7636 161.593 49.6098 161.593 48.3527C161.593 47.658 161.587 46.9839 161.574 46.3306C161.067 46.3306 160.377 46.3616 159.504 46.4236L159.554 45.1892H165.241Z" fill="white"/>
<path d="M179.327 50.4121L179.283 51.8139H173.715L173.809 50.5423C174.262 49.9468 174.933 48.9585 175.823 47.5774C176.787 46.0804 177.269 45.2389 177.269 45.0528V44.9535C176.276 44.9535 175.126 45.0011 173.821 45.0962L173.859 43.7378H179.196L179.108 45.0218C178.651 45.6503 178.011 46.6221 177.188 47.9371C176.257 49.4258 175.791 50.2673 175.791 50.4617V50.5547C176.664 50.5547 177.843 50.5072 179.327 50.4121Z" fill="white"/>
<path d="M189.712 48.3713C189.712 49.3803 189.371 50.2363 188.689 50.9393C188.007 51.6382 187.137 51.9876 186.077 51.9876C185.071 51.9876 184.244 51.6671 183.595 51.0261C182.951 50.3852 182.629 49.5912 182.629 48.6442C182.629 47.6352 182.969 46.7813 183.651 46.0825C184.333 45.3795 185.204 45.028 186.264 45.028C187.27 45.028 188.095 45.3485 188.739 45.9894C189.387 46.6304 189.712 47.4243 189.712 48.3713ZM188.003 48.5388C188.003 47.8937 187.824 47.3582 187.467 46.9323C187.11 46.5022 186.661 46.2872 186.12 46.2872C185.605 46.2872 185.179 46.4981 184.842 46.9198C184.505 47.3416 184.337 47.8606 184.337 48.4768C184.337 49.1219 184.516 49.6595 184.873 50.0895C185.231 50.5196 185.68 50.7346 186.22 50.7346C186.731 50.7346 187.155 50.5237 187.492 50.1019C187.833 49.676 188.003 49.1549 188.003 48.5388Z" fill="white"/>
<path d="M199.249 51.8139H197.684C197.684 51.6444 197.216 50.9372 196.281 49.6925C195.3 48.3858 194.741 47.4574 194.604 46.9074H194.51C194.61 47.6228 194.66 48.2845 194.66 48.8924C194.66 49.6202 194.683 50.594 194.728 51.8139H193.226C193.28 50.7801 193.307 49.6264 193.307 48.3527C193.307 47.1039 193.28 46.0494 193.226 45.1892H195.065C195.065 45.4001 195.479 46.0969 196.306 47.2796C197.199 48.545 197.715 49.4175 197.852 49.8972H197.952C197.852 49.1612 197.802 48.4892 197.802 47.8813C197.802 47.0832 197.775 46.1858 197.721 45.1892H199.249C199.203 46.008 199.18 47.0625 199.18 48.3527C199.18 49.6512 199.203 50.8049 199.249 51.8139Z" fill="white"/>
<path d="M208 50.5671L207.95 51.8139H203.187C203.236 50.7966 203.261 49.6429 203.261 48.3527C203.261 47.1039 203.236 46.0494 203.187 45.1892H207.744L207.694 46.436C206.56 46.374 205.587 46.343 204.777 46.343C204.826 46.802 204.851 47.3044 204.851 47.8503C205.541 47.8503 206.337 47.8296 207.239 47.7882V48.9668C206.379 48.9296 205.583 48.911 204.851 48.911C204.851 49.5354 204.864 50.1185 204.889 50.6602C205.812 50.6602 206.849 50.6292 208 50.5671Z" fill="white"/>
</g>
<defs>
<filter id="filter0_d_123_151" x="0" y="0" width="211" height="55" filterUnits="userSpaceOnUse" color-interpolation-filters="sRGB">
<feFlood flood-opacity="0" result="BackgroundImageFix"/>
<feColorMatrix in="SourceAlpha" type="matrix" values="0 0 0 0 0 0 0 0 0 0 0 0 0 0 0 0 0 0 127 0" result="hardAlpha"/>
<feOffset dx="1" dy="1"/>
<feGaussianBlur stdDeviation="1"/>
<feComposite in2="hardAlpha" operator="out"/>
<feColorMatrix type="matrix" values="0 0 0 0 0 0 0 0 0 0 0 0 0 0 0 0 0 0 0.3 0"/>
<feBlend mode="normal" in2="BackgroundImageFix" result="effect1_dropShadow_123_151"/>
<feBlend mode="normal" in="SourceGraphic" in2="effect1_dropShadow_123_151" result="shape"/>
</filter>
</defs>
</svg>
