<svg width="187" height="237" viewBox="0 0 187 237" fill="none" xmlns="http://www.w3.org/2000/svg">
<g filter="url(#filter0_d_2_64)">
<path fill-rule="evenodd" clip-rule="evenodd" d="M157 31.9446C143.856 12.7777 126.666 2.23276 106.07 0V12.7777C123.499 12.7777 140.213 23.5476 152.539 42.718C164.862 61.8884 171.785 87.8889 171.785 115C171.785 142.111 164.862 168.112 152.539 187.282C140.213 206.452 123.499 217.222 106.07 217.222V230C125.677 230 143.956 218.344 157.821 196.778C171.685 175.211 180 145.5 180 115C180 81.778 169.354 49.9609 157 31.9446Z" fill="black"/>
<path d="M106.07 12.7777V0H102.249V230H106.07V217.222V12.7777Z" fill="black"/>
<path d="M104.427 113.722C92.3389 113.801 83.1335 112.28 71.9584 109.509C60.7832 106.737 50.6249 102.634 42.0635 97.4345C33.5021 92.2346 26.7056 86.0398 22.0614 79.2033C17.4172 72.3669 15.0167 65.0232 14.9967 57.5912C14.9769 50.1592 17.338 42.7846 21.9452 35.8881C26.5524 28.9919 33.3157 22.709 41.849 17.3982C50.3821 12.0874 60.5181 7.85293 71.6778 4.9364C82.8376 2.0198 94.8027 0.0784473 106.891 0V12.6488C95.3908 12.7777 87.9976 13.6096 78.9616 15.3334C69.9257 17.0572 57.7674 21.7222 51.0323 25.5555C43.8025 29.6703 38.4773 33.1406 34.5527 39.015C30.6278 44.8895 28.6164 51.1718 28.6336 57.5027C28.6505 63.8337 30.6954 70.0894 34.6515 75.9133C38.6075 81.7363 44.3973 87.0136 51.6904 91.4429C58.9832 95.8724 67.6366 99.3676 77.1559 101.728C86.6755 104.09 94.1299 104.844 104.427 104.778V113.722Z" fill="black"/>
<path fill-rule="evenodd" clip-rule="evenodd" d="M0 230H10.5986L105.041 113.899L100.966 105.879L0 230Z" fill="black"/>
</g>
<defs>
<filter id="filter0_d_2_64" x="0" y="0" width="187" height="237" filterUnits="userSpaceOnUse" color-interpolation-filters="sRGB">
<feFlood flood-opacity="0" result="BackgroundImageFix"/>
<feColorMatrix in="SourceAlpha" type="matrix" values="0 0 0 0 0 0 0 0 0 0 0 0 0 0 0 0 0 0 127 0" result="hardAlpha"/>
<feOffset dx="4" dy="4"/>
<feGaussianBlur stdDeviation="1.5"/>
<feColorMatrix type="matrix" values="0 0 0 0 0 0 0 0 0 0 0 0 0 0 0 0 0 0 0.25 0"/>
<feBlend mode="normal" in2="BackgroundImageFix" result="effect1_dropShadow_2_64"/>
<feBlend mode="normal" in="SourceGraphic" in2="effect1_dropShadow_2_64" result="shape"/>
</filter>
</defs>
</svg>
