<svg width="150" height="27" viewBox="0 0 150 27" fill="none" xmlns="http://www.w3.org/2000/svg">
<path fill-rule="evenodd" clip-rule="evenodd" d="M18.0288 3.4978C16.5195 1.3991 14.5455 0.244478 12.1804 0V1.3991C14.1818 1.3991 16.1012 2.57837 17.5165 4.67746C18.9317 6.77653 19.7267 9.62349 19.7267 12.592C19.7267 15.5606 18.9317 18.4076 17.5165 20.5066C16.1012 22.6057 14.1818 23.7849 12.1804 23.7849V25.1841C14.432 25.1841 16.531 23.9078 18.1231 21.5464C19.7152 19.1849 20.67 15.9316 20.67 12.592C20.67 8.95436 19.4475 5.47052 18.0288 3.4978Z" fill="white"/>
<path d="M12.1804 1.3991V0H11.7416V25.1841H12.1804V23.7849V1.3991Z" fill="white"/>
<path d="M11.9917 12.4521C10.6036 12.4607 9.54651 12.2942 8.26323 11.9908C6.97995 11.6873 5.81343 11.238 4.8303 10.6687C3.84716 10.0993 3.0667 9.42101 2.53339 8.67245C2.00008 7.92389 1.72442 7.11978 1.72213 6.30601C1.71985 5.49224 1.99098 4.68474 2.52005 3.92961C3.0491 3.1745 3.82576 2.48654 4.80567 1.90503C5.78555 1.32352 6.9495 0.859865 8.23101 0.540516C9.51253 0.22116 10.8865 0.00858967 12.2746 0V1.38499C10.9541 1.3991 10.1051 1.4902 9.06744 1.67894C8.02981 1.86769 6.63363 2.37849 5.86022 2.79823C5.02999 3.24878 4.41849 3.62876 3.96781 4.27199C3.5171 4.91522 3.28613 5.6031 3.28809 6.29632C3.29003 6.98953 3.52486 7.67451 3.97915 8.3122C4.43344 8.9498 5.0983 9.52765 5.93579 10.0126C6.77325 10.4976 7.76695 10.8804 8.86009 11.1389C9.95325 11.3974 10.8093 11.48 11.9917 11.4728V12.4521Z" fill="white"/>
<path fill-rule="evenodd" clip-rule="evenodd" d="M0 25.1841H1.21707L12.0622 12.4715L11.5942 11.5933L0 25.1841Z" fill="white"/>
<path d="M45.8099 21.3125H43.3166C42.4898 18.8838 41.8869 17.2759 41.508 16.489C41.0257 15.4989 40.4788 14.86 39.8673 14.5722C39.385 14.3438 38.5195 14.2295 37.2706 14.2295C36.5386 14.2295 35.8883 14.238 35.3199 14.2549C35.3199 16.9883 35.3716 19.3408 35.4749 21.3125H33.072C33.2012 18.6892 33.2658 15.795 33.2658 12.6301C33.2658 9.65136 33.2012 7.03648 33.072 4.78549H34.8936C35.2811 4.78549 35.7721 4.77279 36.3663 4.74741C36.9606 4.72202 37.641 4.70933 38.4075 4.70933C42.1798 4.70933 44.066 5.98715 44.066 8.54279C44.066 10.6669 43.0066 12.1605 40.8879 13.0237V13.1505C41.8352 13.4298 42.6018 14.0772 43.1874 15.0927C43.6783 15.9389 44.5525 18.0122 45.8099 21.3125ZM41.8568 9.40596C41.8568 7.3919 40.4702 6.38488 37.697 6.38488C36.7065 6.38488 35.8754 6.43989 35.2036 6.54989C35.2639 8.02235 35.2941 10.0237 35.2941 12.554C35.8108 12.5709 36.306 12.5794 36.7797 12.5794C40.1644 12.5794 41.8568 11.5215 41.8568 9.40596ZM58.0698 21.3125L56.0416 21.3888C55.9382 20.974 55.8866 20.5806 55.8866 20.2082H55.7574C54.698 21.156 53.2554 21.6299 51.4296 21.6299C50.4392 21.6299 49.5865 21.3464 48.8717 20.7795C48.1569 20.204 47.7994 19.3873 47.7994 18.3295C47.7994 17.0264 48.3593 15.9812 49.4789 15.1943C50.5985 14.3988 52.6784 13.9799 55.7186 13.9376C55.7445 13.7345 55.7574 13.5017 55.7574 13.2394C55.7574 12.1985 55.4732 11.5046 54.9047 11.1577C54.3449 10.8107 53.4923 10.6372 52.3469 10.6372C50.9947 10.6372 49.6641 10.8023 48.3549 11.1323L48.5746 9.38057C49.8665 9.01668 51.3521 8.83474 53.0315 8.83474C54.5646 8.83474 55.7488 9.14785 56.5842 9.77407C57.4196 10.3918 57.8373 11.4496 57.8373 12.9474C57.8373 13.3452 57.8158 14.0687 57.7727 15.1181C57.7383 16.1589 57.7211 16.8529 57.7211 17.1998C57.7211 18.74 57.8373 20.1109 58.0698 21.3125ZM55.7832 18.85C55.7401 17.5637 55.7186 16.4086 55.7186 15.3846C54.0995 15.3846 52.8679 15.5031 52.0239 15.74C50.6114 16.1632 49.9052 16.9713 49.9052 18.1645C49.9052 19.3155 50.732 19.8909 52.3856 19.8909C53.8067 19.8909 54.9392 19.5439 55.7832 18.85ZM63.7025 21.3125H61.3641C61.4847 19.6201 61.545 17.6864 61.545 15.5116C61.545 13.066 61.3943 11.0138 61.0928 9.35518L63.6766 9.01246C63.5733 10.7811 63.5216 12.9474 63.5216 15.5116C63.5216 17.5426 63.5818 19.4762 63.7025 21.3125ZM64.245 5.44556C64.245 5.87714 64.1029 6.25371 63.8187 6.57529C63.5345 6.88839 63.134 7.04495 62.6172 7.04495C62.178 7.04495 61.8335 6.90955 61.5837 6.63875C61.3426 6.35949 61.2221 6.02523 61.2221 5.63596C61.2221 5.21284 61.3684 4.84473 61.6613 4.53162C61.9541 4.21851 62.3589 4.06195 62.8757 4.06195C63.2977 4.06195 63.6292 4.20158 63.8704 4.48084C64.1202 4.75164 64.245 5.07321 64.245 5.44556ZM78.0681 21.3125H75.7169C75.9064 19.0869 76.0011 16.6582 76.0011 14.0264C76.0011 12.7232 75.7298 11.8346 75.1872 11.3608C74.6532 10.8784 73.8868 10.6372 72.8877 10.6372C71.6647 10.6372 70.5365 11.073 69.503 11.9447C69.503 14.8303 69.5202 17.953 69.5547 21.3125H67.2034C67.3498 18.4353 67.4231 16.3536 67.4231 15.0673C67.4231 13.0871 67.2336 11.1661 66.8546 9.30441L69.1283 8.98706L69.3738 10.5357H69.4771C70.7518 9.40172 72.1168 8.83474 73.5723 8.83474C75.002 8.83474 76.1088 9.14785 76.8925 9.77407C77.6762 10.3918 78.0681 11.4962 78.0681 13.0871C78.0681 13.2479 78.0595 13.5652 78.0423 14.0391C78.0251 14.513 78.0164 14.8303 78.0164 14.9912C78.0164 16.4043 78.0337 18.5115 78.0681 21.3125ZM91.4907 9.25363C91.4907 9.79523 90.8405 11.5215 89.54 14.4326C88.05 17.7583 87.1242 20.1024 86.7625 21.4649C86.1682 23.6735 85.617 25.0783 85.1089 25.6791C84.4198 26.5084 83.1926 26.9231 81.4269 26.9231L81.3236 25.1461C82.4002 25.1461 83.2959 24.7863 84.0107 24.067C84.7255 23.3477 85.083 22.4465 85.083 21.3633C85.083 20.424 84.2906 18.1899 82.7059 14.6611C81.1213 11.1323 80.3289 9.32979 80.3289 9.25363H83.0031C83.0031 9.48212 83.5457 11.0222 84.6308 13.8741C85.7161 16.726 86.2586 18.4819 86.2586 19.1419H86.3877C86.3877 18.5919 86.8442 16.9967 87.7572 14.3565C88.6787 11.7162 89.1395 10.0152 89.1395 9.25363H91.4907ZM113.517 12.4525C113.517 14.8558 112.733 16.9629 111.166 18.7738C109.607 20.5848 107.454 21.4903 104.707 21.4903C103.811 21.4903 102.317 21.431 100.224 21.3125C100.353 18.6892 100.418 15.795 100.418 12.6301C100.418 9.65136 100.353 7.03648 100.224 4.78549H101.645C101.989 4.78549 102.515 4.77279 103.221 4.74741C103.927 4.72202 104.392 4.70933 104.616 4.70933C107.656 4.70933 109.9 5.44556 111.347 6.91801C112.794 8.382 113.517 10.2268 113.517 12.4525ZM111.269 13.0237C111.269 11.145 110.658 9.5752 109.435 8.31431C108.22 7.05341 106.339 6.42297 103.789 6.42297C103.428 6.42297 102.932 6.46528 102.304 6.54989C102.373 8.52164 102.407 10.5484 102.407 12.6301C102.407 14.915 102.454 17.2337 102.549 19.5862C103.238 19.7216 103.901 19.7893 104.539 19.7893C106.812 19.7893 108.5 19.1293 109.603 17.8091C110.714 16.4805 111.269 14.8853 111.269 13.0237ZM126.204 21.3125L124.175 21.3888C124.072 20.974 124.02 20.5806 124.02 20.2082H123.891C122.831 21.156 121.389 21.6299 119.563 21.6299C118.572 21.6299 117.72 21.3464 117.005 20.7795C116.29 20.204 115.933 19.3873 115.933 18.3295C115.933 17.0264 116.493 15.9812 117.613 15.1943C118.732 14.3988 120.812 13.9799 123.852 13.9376C123.878 13.7345 123.891 13.5017 123.891 13.2394C123.891 12.1985 123.607 11.5046 123.038 11.1577C122.478 10.8107 121.626 10.6372 120.481 10.6372C119.128 10.6372 117.798 10.8023 116.489 11.1323L116.708 9.38057C118 9.01668 119.485 8.83474 121.165 8.83474C122.698 8.83474 123.882 9.14785 124.718 9.77407C125.553 10.3918 125.971 11.4496 125.971 12.9474C125.971 13.3452 125.949 14.0687 125.906 15.1181C125.871 16.1589 125.855 16.8529 125.855 17.1998C125.855 18.74 125.971 20.1109 126.204 21.3125ZM123.917 18.85C123.874 17.5637 123.852 16.4086 123.852 15.3846C122.233 15.3846 121.002 15.5031 120.157 15.74C118.745 16.1632 118.038 16.9713 118.038 18.1645C118.038 19.3155 118.865 19.8909 120.519 19.8909C121.94 19.8909 123.073 19.5439 123.917 18.85ZM139.523 9.25363C139.523 9.79523 138.872 11.5215 137.572 14.4326C136.082 17.7583 135.156 20.1024 134.794 21.4649C134.2 23.6735 133.649 25.0783 133.141 25.6791C132.452 26.5084 131.224 26.9231 129.459 26.9231L129.356 25.1461C130.432 25.1461 131.328 24.7863 132.043 24.067C132.758 23.3477 133.115 22.4465 133.115 21.3633C133.115 20.424 132.323 18.1899 130.738 14.6611C129.153 11.1323 128.361 9.32979 128.361 9.25363H131.035C131.035 9.48212 131.578 11.0222 132.663 13.8741C133.748 16.726 134.291 18.4819 134.291 19.1419H134.42C134.42 18.5919 134.876 16.9967 135.789 14.3565C136.711 11.7162 137.171 10.0152 137.171 9.25363H139.523ZM150 17.8726C150 20.3436 148.394 21.5791 145.181 21.5791C143.76 21.5791 142.434 21.4394 141.202 21.1602L141.602 19.2942C142.723 19.7174 143.936 19.929 145.246 19.929C147.124 19.929 148.062 19.4042 148.062 18.355C148.062 17.8472 147.851 17.4452 147.429 17.149C147.015 16.8444 146.327 16.5059 145.362 16.1336C144.139 15.6597 143.252 15.2027 142.701 14.7627C141.891 14.111 141.486 13.3241 141.486 12.4016C141.486 11.437 141.857 10.6118 142.598 9.9264C143.338 9.23248 144.466 8.88552 145.982 8.88552C147.463 8.88552 148.652 9.00823 149.548 9.25363L149.148 11.0815C148.217 10.7176 147.14 10.5357 145.917 10.5357C144.264 10.5357 143.437 11.0054 143.437 11.9447C143.437 12.4186 143.622 12.8036 143.992 13.0998C144.363 13.3875 145.086 13.7387 146.163 14.1534C147.325 14.6019 148.187 15.0419 148.747 15.4735C149.582 16.142 150 16.9417 150 17.8726Z" fill="white"/>
</svg>
